<svg xmlns="http://www.w3.org/2000/svg" width="65" height="95" viewBox="0 0 77.925 109.359">
  <path id="Path_5" data-name="Path 5" d="M73.773,86.408h0a4.226,4.226,0,0,1,4.152,4.28V96.55A12.626,12.626,0,0,1,65.5,109.359H12.426A12.626,12.626,0,0,1,0,96.55V12.809A12.626,12.626,0,0,1,12.426,0H65.469A12.626,12.626,0,0,1,77.9,12.809v5.645a4.226,4.226,0,0,1-4.152,4.28h0a4.226,4.226,0,0,1-4.152-4.28V12.809a4.226,4.226,0,0,0-4.152-4.28H12.426a4.226,4.226,0,0,0-4.152,4.28V96.55a4.226,4.226,0,0,0,4.152,4.28H65.469a4.226,4.226,0,0,0,4.152-4.28V90.688A4.226,4.226,0,0,1,73.773,86.408ZM43.115,17.12H34.841a4.226,4.226,0,0,0-4.152,4.28h0a4.226,4.226,0,0,0,4.152,4.28h8.274a4.226,4.226,0,0,0,4.152-4.28h0A4.226,4.226,0,0,0,43.115,17.12Zm-8.3,70.9a4.154,4.154,0,1,0,4.152-4.28,4.226,4.226,0,0,0-4.152,4.28ZM77.925,41.87" fill="rgba(24,51,38,0.57)"/>
</svg>
