<svg xmlns="http://www.w3.org/2000/svg" width="100" height="70" viewBox="0 0 117 87.796">
  <path id="Path_6" data-name="Path 6" d="M103.257,0H13.711A13.879,13.879,0,0,0,0,14.013v59.77A13.879,13.879,0,0,0,13.711,87.8H55.535a4.637,4.637,0,0,0,4.581-4.682h0a4.638,4.638,0,0,0-4.581-4.682H13.711A4.637,4.637,0,0,1,9.13,73.751V16.867L58.484,54.383l49.354-37.517V64.452a4.638,4.638,0,0,0,4.581,4.682h0A4.637,4.637,0,0,0,117,64.452V14.013A13.9,13.9,0,0,0,103.257,0ZM58.484,42.744,14.527,9.331H102.41Z" fill="rgba(24,51,38,0.57)"/>
</svg>
